<?xml-stylesheet type="text/css" href="../../css/main.css" ?><svg xmlns="http://www.w3.org/2000/svg" viewBox="0 0 25.67 21.719"><path d="M20.564 1.973a2.962 2.962 0 00-5.584 0H0v1.975h14.979a2.962 2.962 0 005.584 0h5.107V1.973zM7.9 7.898a2.967 2.967 0 00-2.792 1.975H0v1.975h5.106a2.962 2.962 0 005.584 0h14.98V9.873H10.691A2.967 2.967 0 007.9 7.898zm9.871 7.898a2.967 2.967 0 00-2.792 1.975H0v1.975h14.979a2.962 2.962 0 005.584 0h5.107v-1.975h-5.106a2.967 2.967 0 00-2.793-1.975z" fill="#9c9d9d"/></svg>